<svg xmlns="http://www.w3.org/2000/svg" width="152" height="40" viewBox="0 0 152 40" fill="none">
    <g clip-path="url(#clip0_13131_4833)">
        <path
            d="M34.7188 26.5791L39.6939 13.5352H41.6133L46.5698 26.5791H44.8367L43.4578 23.0571H37.7748L36.3959 26.5791H34.7188ZM38.2593 21.585H42.9739L40.6073 15.3054L38.2593 21.585Z"
            fill="#FFFEFA"></path>
        <path
            d="M53.7713 17.0793H55.2993V26.5827H53.9763L53.7713 25.3155C53.2123 26.0237 52.2992 26.6945 50.7338 26.6945C48.6468 26.6945 46.9883 25.5208 46.9883 22.3716V17.0793H48.5163V22.2784C48.5163 24.2534 49.4108 25.2972 50.9947 25.2972C52.7278 25.2972 53.7713 23.9742 53.7713 21.8312V17.0793Z"
            fill="#FFFEFA"></path>
        <path
            d="M57.7453 18.4754H56.0312V17.0778H57.7453V14.4131H59.2734V17.0778H61.7331V18.4754H59.2734V24.0845C59.2734 24.8854 59.5529 25.1839 60.3728 25.1839H61.8822V26.5815H60.2237C58.3975 26.5815 57.7453 25.7802 57.7453 24.1031V18.4754Z"
            fill="#FFFEFA"></path>
        <path
            d="M71.2348 21.2868V26.5791H69.7067V21.38C69.7067 19.4051 68.7564 18.3612 67.1165 18.3612C65.3462 18.3612 64.2468 19.6839 64.2468 21.8269V26.5788H62.7188V13.5352H64.2468V18.641C64.8058 17.7466 65.7748 16.9636 67.3774 16.9636C69.5018 16.9636 71.2348 18.1376 71.2348 21.2868Z"
            fill="#FFFEFA"></path>
        <path
            d="M72.6543 19.7613C72.6543 16.053 74.6668 13.4255 77.6108 13.4255C80.5364 13.4255 82.549 16.053 82.549 19.7613V20.3576C82.549 24.2519 80.5364 26.6931 77.6108 26.6931C74.6668 26.6931 72.6543 24.2519 72.6543 20.3576V19.7613ZM80.965 19.8172C80.965 16.7239 79.6233 14.8604 77.6108 14.8604C75.5799 14.8604 74.2382 16.7239 74.2382 19.8172V20.3017C74.2382 23.3951 75.5799 25.2585 77.6108 25.2585C79.6237 25.2585 80.965 23.3951 80.965 20.3017V19.8172Z"
            fill="#FFFEFA"></path>
        <path
            d="M98.0691 21.8272C98.0691 24.7343 96.1311 26.6909 93.5036 26.6909C91.901 26.6909 90.8202 26.039 90.2429 25.1259L90.0376 26.5791H88.7148V13.5352H90.2429V18.6035C90.8765 17.7273 91.901 16.9636 93.5036 16.9636C96.1308 16.9636 98.0691 18.7342 98.0691 21.8272ZM96.5035 21.8272C96.5035 19.7588 95.2363 18.3243 93.3542 18.3243C91.4908 18.3243 90.2236 19.7591 90.2236 21.7903C90.2236 23.8771 91.4908 25.3309 93.3542 25.3309C95.2363 25.3306 96.5035 23.8957 96.5035 21.8272Z"
            fill="#FFFEFA"></path>
        <path
            d="M98.0117 17.0752H99.6329L102.559 24.6592L105.391 17.0752H107.012L102.633 28.1811C102.037 29.7092 101.682 30.3051 100.341 30.3051H98.5145V28.9075H99.8745C100.751 28.9075 100.899 28.6839 101.254 27.7895L101.719 26.6341L98.0117 17.0752Z"
            fill="#FFFEFA"></path>
        <path
            d="M118.431 26.6928C114.76 26.6928 112.207 23.8979 112.207 20.0591C112.207 16.2207 114.76 13.4255 118.431 13.4255C122.102 13.4255 124.655 16.2207 124.655 20.0591C124.655 23.8976 122.102 26.6928 118.431 26.6928ZM118.431 25.202C121.151 25.202 122.996 23.059 122.996 20.0588C122.996 17.0587 121.151 14.9157 118.431 14.9157C115.71 14.9157 113.865 17.0587 113.865 20.0588C113.865 23.059 115.71 25.202 118.431 25.202Z"
            fill="#FFFEFA"></path>
        <path
            d="M126.182 13.5352H127.71V22.1254L132.48 17.0754H134.362L130.654 21.007L134.623 26.5788H132.778L129.629 22.1065L127.71 24.0817V26.5784H126.182V13.5352H126.182Z"
            fill="#FFFEFA"></path>
        <path
            d="M136.464 18.4754H134.75V17.0778H136.464V14.4131H137.992V17.0778H140.452V18.4754H137.992V24.0845C137.992 24.8854 138.272 25.1839 139.092 25.1839H140.601V26.5815H138.942C137.116 26.5815 136.464 25.7802 136.464 24.1031V18.4754Z"
            fill="#FFFEFA"></path>
        <path
            d="M150.414 25.1837V26.5813H149.576C148.309 26.5813 147.88 26.0409 147.861 25.1092C147.265 25.9664 146.315 26.6931 144.675 26.6931C142.588 26.6931 141.172 25.6496 141.172 23.9165C141.172 22.0158 142.495 20.9536 144.992 20.9536H147.787V20.3014C147.787 19.0719 146.911 18.3265 145.421 18.3265C144.079 18.3265 143.184 18.96 142.998 19.929H141.47C141.694 18.0653 143.203 16.9658 145.495 16.9658C147.918 16.9658 149.315 18.1774 149.315 20.3946V24.5501C149.315 25.0533 149.502 25.184 149.93 25.184L150.414 25.1837ZM147.787 22.2394H144.843C143.483 22.2394 142.719 22.7426 142.719 23.8234C142.719 24.7551 143.52 25.3887 144.787 25.3887C146.688 25.3887 147.788 24.2892 147.788 22.7053V22.2394H147.787Z"
            fill="#FFFEFA"></path>
        <path
            d="M1.68997 17.8918C6.93659 17.0276 11.0459 12.6902 11.9101 7.44679L12.1993 4.92469C12.27 4.52308 12.0001 3.96725 11.4924 4.00581C7.52776 4.31424 3.79119 5.62188 1.70604 6.47329C0.674703 6.89418 0 7.89981 0 9.01467V17.2396C0 17.728 0.43695 18.0975 0.918881 18.0203L1.68997 17.895V17.8918Z"
            fill="#FFFEFA"></path>
        <path
            d="M14.4397 7.44608C15.304 12.6927 19.4133 17.0269 24.6599 17.8911L25.431 18.0164C25.9129 18.0967 26.3498 17.724 26.3498 17.2357V9.01074C26.3498 7.89588 25.6751 6.89346 24.6438 6.46937C22.5619 5.61796 18.8221 4.31032 14.8574 4.00188C14.3498 3.96333 14.0863 4.52558 14.1474 4.92076L14.4365 7.44286L14.4397 7.44608Z"
            fill="#FFFEFA"></path>
        <path
            d="M24.6566 20.1924C17.4887 21.6061 14.1602 26.3708 14.1602 35.3925C14.1602 35.8455 14.61 36.1572 14.9859 35.9066C18.2823 33.6833 25.5369 27.8808 26.2855 20.6197C26.3145 19.7041 25.1707 20.1346 24.6566 20.1924Z"
            fill="#FFFEFA"></path>
        <path
            d="M1.69196 20.1963C8.85988 21.61 12.1884 26.3747 12.1884 35.3964C12.1884 35.8494 11.7386 36.1611 11.3627 35.9105C8.0663 33.6872 0.811637 27.8847 0.0630382 20.6236C0.0341223 19.708 1.1779 20.1385 1.69196 20.1963Z"
            fill="#FFFEFA"></path>
    </g>
    <defs>
        <clipPath id="clip0_13131_4833">
            <rect width="152" height="40" fill="#FFFEFA"></rect>
        </clipPath>
    </defs>
</svg>